<svg xmlns="http://www.w3.org/2000/svg" xmlns:xlink="http://www.w3.org/1999/xlink" width="141.182" height="44.985" viewBox="0 0 141.182 44.985">
  <defs>
    <clipPath id="clip-path">
      <rect id="Rectangle_42" data-name="Rectangle 42" width="38.943" height="44.985" fill="#333"/>
    </clipPath>
  </defs>
  <g id="ICON_舉手小人" transform="translate(-247 -565.459)">
    <g id="Group_12" data-name="Group 12" transform="translate(247 565.459)">
      <g id="Group_11" data-name="Group 11" clip-path="url(#clip-path)">
        <path id="Path_157" data-name="Path 157" d="M18.842,22.169a9.747,9.747,0,1,0,9.748-9.747,9.748,9.748,0,0,0-9.748,9.747" transform="translate(-12.447 -8.206)" fill="#333"/>
        <path id="Path_158" data-name="Path 158" d="M35.105.006a4.046,4.046,0,0,0-4.263,4.04V6.531c.149,8.689-1.732,14.907-5.436,17.984-.482.4-.969.776-1.453,1.128a14.007,14.007,0,0,1-16.7-.794C3.208,26.693,0,30.094,0,35.794V42.95a2.036,2.036,0,0,0,2.036,2.036H30.25a2.035,2.035,0,0,0,2.035-2.036V35.794c0-.357-.012-.7-.037-1.043a12.915,12.915,0,0,1,2.029-8.163c3.236-4.846,4.8-11.593,4.656-20.125V4.274A4.2,4.2,0,0,0,35.105.006" transform="translate(0 0)" fill="#333"/>
      </g>
    </g>
    <g id="Group_13" data-name="Group 13" transform="translate(298.12 565.459)">
      <g id="Group_11-2" data-name="Group 11" clip-path="url(#clip-path)">
        <path id="Path_157-2" data-name="Path 157" d="M18.842,22.169a9.747,9.747,0,1,0,9.748-9.747,9.748,9.748,0,0,0-9.748,9.747" transform="translate(-12.447 -8.206)" fill="#333"/>
        <path id="Path_158-2" data-name="Path 158" d="M35.105.006a4.046,4.046,0,0,0-4.263,4.04V6.531c.149,8.689-1.732,14.907-5.436,17.984-.482.4-.969.776-1.453,1.128a14.007,14.007,0,0,1-16.7-.794C3.208,26.693,0,30.094,0,35.794V42.95a2.036,2.036,0,0,0,2.036,2.036H30.25a2.035,2.035,0,0,0,2.035-2.036V35.794c0-.357-.012-.7-.037-1.043a12.915,12.915,0,0,1,2.029-8.163c3.236-4.846,4.8-11.593,4.656-20.125V4.274A4.2,4.2,0,0,0,35.105.006" transform="translate(0 0)" fill="#333"/>
      </g>
    </g>
    <g id="Group_14" data-name="Group 14" transform="translate(349.24 565.459)">
      <g id="Group_11-3" data-name="Group 11" clip-path="url(#clip-path)">
        <path id="Path_157-3" data-name="Path 157" d="M18.842,22.169a9.747,9.747,0,1,0,9.748-9.747,9.748,9.748,0,0,0-9.748,9.747" transform="translate(-12.447 -8.206)" fill="#333"/>
        <path id="Path_158-3" data-name="Path 158" d="M35.105.006a4.046,4.046,0,0,0-4.263,4.04V6.531c.149,8.689-1.732,14.907-5.436,17.984-.482.4-.969.776-1.453,1.128a14.007,14.007,0,0,1-16.7-.794C3.208,26.693,0,30.094,0,35.794V42.95a2.036,2.036,0,0,0,2.036,2.036H30.25a2.035,2.035,0,0,0,2.035-2.036V35.794c0-.357-.012-.7-.037-1.043a12.915,12.915,0,0,1,2.029-8.163c3.236-4.846,4.8-11.593,4.656-20.125V4.274A4.2,4.2,0,0,0,35.105.006" transform="translate(0 0)" fill="#333"/>
      </g>
    </g>
  </g>
</svg>
