<svg width="1078" height="1078" viewBox="0 0 1078 1078" fill="none" xmlns="http://www.w3.org/2000/svg">
<mask id="mask0_42_21" style="mask-type:luminance" maskUnits="userSpaceOnUse" x="0" y="0" width="1078" height="1078">
<path d="M1078 0H0V1078H1078V0Z" fill="white"/>
</mask>
<g mask="url(#mask0_42_21)">
<path d="M1863.23 427.492L587.613 -848.129C550.904 -884.838 491.386 -884.838 454.677 -848.129L-130.1 -263.351C-166.81 -226.642 -166.81 -167.125 -130.1 -130.415L1145.52 1145.21C1182.23 1181.91 1241.75 1181.91 1278.46 1145.21L1863.23 560.428C1899.94 523.719 1899.94 464.201 1863.23 427.492Z" fill="#2C3735"/>
</g>
<mask id="mask1_42_21" style="mask-type:luminance" maskUnits="userSpaceOnUse" x="549" y="0" width="288" height="268">
<path d="M837 0H549V268H837V0Z" fill="white"/>
</mask>
<g mask="url(#mask1_42_21)">
<mask id="mask2_42_21" style="mask-type:luminance" maskUnits="userSpaceOnUse" x="549" y="-20" width="288" height="288">
<path d="M693 268C772.529 268 837 203.529 837 124C837 44.471 772.529 -20 693 -20C613.471 -20 549 44.471 549 124C549 203.529 613.471 268 693 268Z" fill="white"/>
</mask>
<g mask="url(#mask2_42_21)">
<path d="M698.443 -136.136L689.391 -145.188L406.864 137.339L415.916 146.392L698.443 -136.136Z" fill="#3B4543"/>
<path d="M716.071 -118.508L707.019 -127.56L424.492 154.967L433.544 164.02L716.071 -118.508Z" fill="#3B4543"/>
<path d="M733.7 -100.879L724.647 -109.932L442.12 172.596L451.173 181.648L733.7 -100.879Z" fill="#3B4543"/>
<path d="M751.328 -83.2513L742.275 -92.3037L459.748 190.224L468.8 199.276L751.328 -83.2513Z" fill="#3B4543"/>
<path d="M768.956 -65.6229L759.904 -74.6753L477.376 207.852L486.429 216.904L768.956 -65.6229Z" fill="#3B4543"/>
<path d="M786.584 -47.995L777.532 -57.0474L495.004 225.48L504.057 234.532L786.584 -47.995Z" fill="#3B4543"/>
<path d="M804.213 -30.3666L795.16 -39.4189L512.633 243.108L521.685 252.161L804.213 -30.3666Z" fill="#3B4543"/>
<path d="M821.84 -12.7386L812.788 -21.791L530.261 260.736L539.313 269.789L821.84 -12.7386Z" fill="#3B4543"/>
<path d="M839.469 4.88978L830.417 -4.1626L547.889 278.365L556.942 287.417L839.469 4.88978Z" fill="#3B4543"/>
<path d="M857.097 22.5177L848.044 13.4653L565.517 295.993L574.569 305.045L857.097 22.5177Z" fill="#3B4543"/>
<path d="M874.725 40.1461L865.673 31.0938L583.146 313.621L592.198 322.673L874.725 40.1461Z" fill="#3B4543"/>
<path d="M892.353 57.7741L883.301 48.7217L600.773 331.249L609.826 340.301L892.353 57.7741Z" fill="#3B4543"/>
<path d="M909.982 75.4025L900.929 66.3501L618.402 348.877L627.454 357.93L909.982 75.4025Z" fill="#3B4543"/>
<path d="M927.61 93.0304L918.557 83.978L636.03 366.505L645.082 375.558L927.61 93.0304Z" fill="#3B4543"/>
<path d="M945.238 110.659L936.186 101.606L653.658 384.134L662.711 393.186L945.238 110.659Z" fill="#3B4543"/>
</g>
</g>
<mask id="mask3_42_21" style="mask-type:luminance" maskUnits="userSpaceOnUse" x="800" y="677" width="278" height="401">
<path d="M1078 677H800V1078H1078V677Z" fill="white"/>
</mask>
<g mask="url(#mask3_42_21)">
<mask id="mask4_42_21" style="mask-type:luminance" maskUnits="userSpaceOnUse" x="790" y="678" width="441" height="441">
<path d="M1010.5 1119C1132.28 1119 1231 1020.28 1231 898.5C1231 776.721 1132.28 678 1010.5 678C888.721 678 790 776.721 790 898.5C790 1020.28 888.721 1119 1010.5 1119Z" fill="white"/>
</mask>
<g mask="url(#mask4_42_21)">
<path d="M1055.43 1055.12L1078 1032.55V1059.63L1068.97 1068.66L1055.43 1055.12ZM1029.07 1028.76L1078 979.833V1006.9L1042.6 1042.3L1029.07 1028.76ZM1002.71 1002.4L1078 927.108V954.182L1016.24 1015.94L1002.71 1002.4ZM976.348 976.039L1078 874.388V901.462L989.885 989.576L976.348 976.039ZM949.986 949.678L1078 821.663V848.737L963.523 963.214L949.986 949.678ZM923.625 923.316L1078 768.943V796.02L937.164 936.855L923.625 923.316ZM897.265 896.957L1078 716.223V743.296L910.8 910.496L897.265 896.957ZM870.899 870.589L1078 663.489V690.562L884.438 884.122L870.899 870.589ZM844.541 844.229L1078 610.771V637.845L858.076 857.766L844.541 844.229ZM818.179 817.869L1036.05 600H1063.12L831.716 831.405L818.179 817.869ZM791.817 791.507L983.323 600H1010.4L805.356 805.043L791.817 791.507ZM765.457 765.146L930.603 600.001H957.676L778.999 778.684L765.457 765.146Z" fill="#3B4543"/>
</g>
</g>
<path d="M960.032 104.308H968.273V143.133H960.032V128.66H921V118.781H960.032V104.308ZM921 151.898V141.188L968.273 157.507V170.387L921 186.684V175.973L957.47 164.132V163.763L921 151.898ZM939.581 151.229V176.527H931.779V151.229H939.581ZM968.273 202.368H921V192.373H968.273V202.368ZM921 221.232L968.273 207.706V218.624L935.426 226.449V226.841L968.273 235.474V244.822L935.357 253.432V253.847L968.273 261.672V272.59L921 259.064V249.323L951.907 240.321V239.952L921 230.973V221.232ZM921 281.327V270.617L968.273 286.936V299.816L921 316.112V305.402L957.47 293.561V293.191L921 281.327ZM939.581 280.658V305.956H931.779V280.658H939.581ZM968.273 361.342H921V352.709L950.753 332.143V331.797H921V321.802H968.273V330.573L938.543 350.978V351.394H968.273V361.342Z" fill="#5E6765"/>
<path d="M921 431.832H928.202L943.782 448.659C945.167 450.09 946.414 451.29 947.522 452.26C948.63 453.244 949.714 453.991 950.776 454.499C951.853 455.006 953.015 455.26 954.262 455.26C955.647 455.26 956.839 454.945 957.839 454.314C958.855 453.683 959.632 452.821 960.171 451.729C960.725 450.636 961.002 449.397 961.002 448.012C961.002 446.566 960.709 445.304 960.125 444.227C959.54 443.15 958.701 442.319 957.609 441.734C956.516 441.149 955.216 440.857 953.708 440.857V431.37C956.801 431.37 959.486 432.07 961.763 433.471C964.041 434.871 965.803 436.833 967.049 439.357C968.296 441.88 968.919 444.789 968.919 448.082C968.919 451.467 968.319 454.414 967.119 456.922C965.934 459.446 964.287 461.408 962.179 462.808C960.071 464.209 957.655 464.909 954.931 464.909C953.146 464.909 951.384 464.555 949.645 463.847C947.906 463.154 945.975 461.916 943.852 460.131C941.743 458.346 939.212 455.83 936.257 452.583L929.494 445.681H929.171V465.532H921V431.832ZM919.961 491.309C919.977 487.339 920.954 483.923 922.893 481.061C924.832 478.214 927.64 476.021 931.318 474.482C934.996 472.959 939.42 472.205 944.59 472.22C949.745 472.22 954.139 472.982 957.77 474.505C961.402 476.044 964.164 478.237 966.057 481.084C967.965 483.946 968.919 487.354 968.919 491.309C968.919 495.264 967.965 498.665 966.057 501.512C964.149 504.374 961.379 506.574 957.747 508.113C954.131 509.652 949.745 510.414 944.59 510.398C939.404 510.398 934.973 509.629 931.295 508.09C927.617 506.567 924.809 504.382 922.87 501.535C920.931 498.688 919.961 495.279 919.961 491.309ZM928.248 491.309C928.248 494.018 929.61 496.18 932.333 497.795C935.057 499.411 939.143 500.211 944.59 500.196C948.176 500.196 951.161 499.827 953.546 499.088C955.931 498.365 957.724 497.334 958.924 495.995C960.125 494.672 960.725 493.11 960.725 491.309C960.725 488.616 959.378 486.462 956.685 484.846C953.992 483.23 949.961 482.415 944.59 482.399C940.959 482.399 937.927 482.761 935.496 483.484C933.08 484.223 931.264 485.262 930.048 486.6C928.848 487.939 928.248 489.509 928.248 491.309ZM921 517.525H928.202L943.782 534.352C945.167 535.783 946.414 536.983 947.522 537.953C948.63 538.938 949.714 539.684 950.776 540.192C951.853 540.7 953.015 540.954 954.262 540.954C955.647 540.954 956.839 540.638 957.839 540.007C958.855 539.376 959.632 538.515 960.171 537.422C960.725 536.329 961.002 535.091 961.002 533.706C961.002 532.259 960.709 530.997 960.125 529.92C959.54 528.843 958.701 528.012 957.609 527.427C956.516 526.843 955.216 526.55 953.708 526.55V517.063C956.801 517.063 959.486 517.764 961.763 519.164C964.041 520.564 965.803 522.526 967.049 525.05C968.296 527.574 968.919 530.482 968.919 533.775C968.919 537.16 968.319 540.107 967.119 542.616C965.934 545.139 964.287 547.101 962.179 548.502C960.071 549.902 957.655 550.602 954.931 550.602C953.146 550.602 951.384 550.248 949.645 549.54C947.906 548.848 945.975 547.609 943.852 545.824C941.743 544.039 939.212 541.523 936.257 538.276L929.494 531.374H929.171V551.225H921V517.525ZM919.961 577.003C919.977 573.032 920.954 569.616 922.893 566.754C924.832 563.907 927.64 561.714 931.318 560.176C934.996 558.652 939.42 557.898 944.59 557.913C949.745 557.913 954.139 558.675 957.77 560.199C961.402 561.737 964.164 563.93 966.057 566.777C967.965 569.639 968.919 573.048 968.919 577.003C968.919 580.957 967.965 584.358 966.057 587.205C964.149 590.067 961.379 592.268 957.747 593.807C954.131 595.345 949.745 596.107 944.59 596.092C939.404 596.092 934.973 595.322 931.295 593.783C927.617 592.26 924.809 590.075 922.87 587.228C920.931 584.381 919.961 580.973 919.961 577.003ZM928.248 577.003C928.248 579.711 929.61 581.873 932.333 583.489C935.057 585.104 939.143 585.905 944.59 585.889C948.176 585.889 951.161 585.52 953.546 584.781C955.931 584.058 957.724 583.027 958.924 581.688C960.125 580.365 960.725 578.803 960.725 577.003C960.725 574.31 959.378 572.155 956.685 570.54C953.992 568.924 949.961 568.108 944.59 568.093C940.959 568.093 937.927 568.454 935.496 569.178C933.08 569.916 931.264 570.955 930.048 572.294C928.848 573.633 928.248 575.202 928.248 577.003Z" fill="#5E6765"/>
<path d="M945 888V630" stroke="#64706D" stroke-width="3"/>
</svg>
