<svg xmlns="http://www.w3.org/2000/svg" xmlns:xlink="http://www.w3.org/1999/xlink" width="651" height="1022" viewBox="0 0 651 1022">
  <defs>
    <clipPath id="clip-path">
      <rect id="Rectangle_925" data-name="Rectangle 925" width="651" height="1022" fill="none"/>
    </clipPath>
  </defs>
  <g id="IMG_底圖圓弧框" transform="translate(-1033 -51)">
    <g id="Rectangle_833" data-name="Rectangle 833" transform="translate(1067 107)" fill="#f6f6f6" stroke="#344340" stroke-width="5">
      <rect width="574.793" height="911" rx="287.396" stroke="none"/>
      <rect x="2.5" y="2.5" width="569.793" height="906" rx="284.896" fill="none"/>
    </g>
    <g id="Group_1544" data-name="Group 1544" transform="translate(1033 51)">
      <g id="Group_1543" data-name="Group 1543" clip-path="url(#clip-path)">
        <path id="Path_10790" data-name="Path 10790" d="M38.407,178.092C92.046,76.636,198.647,7.5,321.4,7.5h0c176.674,0,319.9,143.223,319.9,319.9V700.6a320.865,320.865,0,0,1-8.18,72.194" fill="none" stroke="#f4f4f4" stroke-width="3"/>
        <path id="Path_10791" data-name="Path 10791" d="M321,0a8,8,0,1,1-8,8,8,8,0,0,1,8-8" fill="#fff"/>
        <path id="Path_10792" data-name="Path 10792" d="M643,507a8,8,0,1,1-8,8,8,8,0,0,1,8-8" fill="#fff"/>
      </g>
    </g>
  </g>
</svg>
